<svg xmlns="http://www.w3.org/2000/svg" width="400" height="240" viewBox="0 0 400 240">
  <defs>
    <linearGradient id="g" x1="0%" y1="0%" x2="100%" y2="100%">
      <stop offset="0%" style="stop-color:#D97706"/>
      <stop offset="100%" style="stop-color:#B45309"/>
    </linearGradient>
  </defs>
  <rect width="400" height="240" fill="url(#g)"/>
  <rect x="0" y="130" width="400" height="110" fill="#92400E" opacity="0.4"/>
  <rect x="30" y="90" width="60" height="110" fill="#FDE68A" opacity="0.85"/>
  <polygon points="30,90 60,55 90,90" fill="#FCD34D" opacity="0.9"/>
  <rect x="110" y="100" width="50" height="100" fill="#FEF3C7" opacity="0.85"/>
  <polygon points="110,100 135,70 160,100" fill="#FCD34D" opacity="0.9"/>
  <rect x="180" y="85" width="70" height="115" fill="#FDE68A" opacity="0.85"/>
  <polygon points="180,85 215,45 250,85" fill="#FCD34D" opacity="0.9"/>
  <rect x="270" y="95" width="55" height="105" fill="#FEF3C7" opacity="0.85"/>
  <polygon points="270,95 297,62 325,95" fill="#FCD34D" opacity="0.9"/>
  <circle cx="80" cy="140" r="12" fill="#F87171" opacity="0.7"/>
  <circle cx="150" cy="135" r="10" fill="#FB923C" opacity="0.7"/>
  <circle cx="220" cy="130" r="14" fill="#FBBF24" opacity="0.7"/>
  <text x="200" y="218" font-family="Arial,sans-serif" font-size="18" font-weight="bold" fill="white" text-anchor="middle">Hội An</text>
</svg>
